<svg xmlns="http://www.w3.org/2000/svg" xmlns:xlink="http://www.w3.org/1999/xlink" width="1080" height="1080" viewBox="0 0 1080 1080">
  <defs>
    <clipPath id="clip-Icon7">
      <rect width="1080" height="1080"/>
    </clipPath>
  </defs>
  <g id="Icon7" clip-path="url(#clip-Icon7)">
    <rect width="1080" height="1080" fill="#fff"/>
    <g id="Icon8" transform="translate(93.721 93.724)">
      <path id="Path_69" data-name="Path 69" d="M596.687,41.392A14.392,14.392,0,0,0,582.295,27H467.157a14.392,14.392,0,0,0-14.392,14.392V516.334H395.2V257.275A14.392,14.392,0,0,0,380.8,242.883H265.667a14.392,14.392,0,0,0-14.392,14.392V516.334H193.706V415.589A14.392,14.392,0,0,0,179.314,401.2H64.177a14.392,14.392,0,0,0-14.392,14.392V516.334H21v28.784H625.471V516.334H596.687ZM164.922,516.334H78.569V429.981h86.353Zm201.49,0H280.059V271.667h86.353Zm201.491,0H481.55V55.784H567.9Z" transform="translate(266.844 347.158)" fill="#ffbd59"/>
      <path id="Path_70" data-name="Path 70" d="M825.413,160.372l38.3,22.826a14.392,14.392,0,0,0,21.747-13.1L877.541,14.665A14.392,14.392,0,0,0,856.975,2.4L716.493,69.471a14.392,14.392,0,0,0-1.166,25.345l37.1,22.106a1870.643,1870.643,0,0,1-213,274.531L461.708,309.5a56.95,56.95,0,0,0-54.172-16.637l-40.169,8.765.907-32.267,34.541-10.391a57.569,57.569,0,0,0,33.994-27.993l34.541-64.463a14.392,14.392,0,0,0-2.216-16.681l-29.648-31.389a14.392,14.392,0,0,0-21.934,1.195l-44.414,58.691-28.079-19.89a57.8,57.8,0,0,0-43.723-9.513,57.857,57.857,0,1,0-50.373,21.5l-1.439.662a86.238,86.238,0,0,0-39.665,37.535l-53.107,99.306a14.392,14.392,0,0,0,5.915,19.487l40.154,21.444a14.392,14.392,0,0,0,19.17-5.368l32.972-55.727,13.27,84.914a42.774,42.774,0,0,0,29.705,31.49l25.906,70.205L321.629,552.9A14.392,14.392,0,0,0,332.754,567.3l14.047,3.267a1861.574,1861.574,0,0,1-239.817,164.4L8.2,791.843A14.392,14.392,0,0,0,1,804.321v64.491A14.392,14.392,0,0,0,22.588,881.3L156.565,804.7A1904.314,1904.314,0,0,0,825.413,160.372ZM235.42,133.214A28.784,28.784,0,0,1,256.288,84.64h.892a28.784,28.784,0,1,1-21.689,48.574Zm79,243.386a13.241,13.241,0,0,1-5.2.533,13.629,13.629,0,0,1-12.78-9.859L277.157,243.631a14.392,14.392,0,0,0-26.611-5.095l-46.372,78.38-15.3-8.175,46.3-86.583A57.3,57.3,0,0,1,261.5,197.216l38.154-17.789A29,29,0,0,1,328.436,182l39.435,27.935a14.392,14.392,0,0,0,19.789-3.066l42.586-56.23,10.837,11.514-29.677,55.4A28.655,28.655,0,0,1,394.5,231.527l-44.472,13.385a14.392,14.392,0,0,0-10.218,13.37l-1.741,61.008a14.392,14.392,0,0,0,17.458,14.479l58.346-12.723a28.209,28.209,0,0,1,26.885,8.29l78.855,83.072c-5.253,5.44-10.449,10.938-15.759,16.306L422.36,351.7a14.392,14.392,0,0,0-14.076-3.31Zm98.889,71.659-23.718-64.232,19.142-5.757,74.681,70.522q-37.42,36.772-76.941,71.414l7.7-65.269a14.234,14.234,0,0,0-.863-6.62Zm-85.331-45.7,33.937-10.247L385.1,454.994l-10.88,92.383-23.589-5.455L352.6,472.38a14.293,14.293,0,0,0-.878-5.383Z" transform="translate(-1 -1.003)" fill="#ffbd59"/>
      <rect id="Rectangle_7" data-name="Rectangle 7" width="115.137" height="28.799" transform="matrix(0.726, -0.687, 0.687, 0.726, 52.295, 463.172)" fill="#ffbd59"/>
      <rect id="Rectangle_8" data-name="Rectangle 8" width="100.745" height="28.799" transform="matrix(0.726, -0.687, 0.687, 0.726, 153.469, 486.301)" fill="#ffbd59"/>
    </g>
  </g>
</svg>
