<svg xmlns="http://www.w3.org/2000/svg" xmlns:xlink="http://www.w3.org/1999/xlink" width="1080" height="1080" viewBox="0 0 1080 1080">
  <defs>
    <clipPath id="clip-Icon1">
      <rect width="1080" height="1080"/>
    </clipPath>
  </defs>
  <g id="Icon1" clip-path="url(#clip-Icon1)">
    <rect width="1080" height="1080" fill="#fff"/>
    <g id="layer1" transform="translate(81.881 80.489)">
      <path id="path850" d="M746.706,0C644.751,0,574.389,86.158,574.389,172.317c0,57.439,24.411,93.338,45.951,119.186,11.488,12.924,21.54,24.412,28.719,34.463,4.308,5.744,8.616,11.488,10.052,18.668-7.18,1.436-12.924,5.744-14.36,14.36a14.39,14.39,0,0,0,14.36,14.36v57.439c0,11.488,5.744,22.976,12.924,30.155s18.668,12.924,30.155,12.924v14.36c0,22.976,20.1,43.079,43.079,43.079s43.079-20.1,43.079-43.079v-14.36c11.488,0,21.54-5.744,30.155-12.924,7.18-7.18,12.924-18.668,12.924-30.155V373.353c8.616,0,14.36-5.744,14.36-14.36,0-10.052-7.18-12.924-14.36-14.36,1.436-5.744,5.744-11.488,10.052-18.668,7.18-10.052,17.232-21.54,28.719-34.463,21.54-25.847,45.951-60.311,45.951-119.186C919.022,86.158,851.531,0,746.706,0ZM37.335,28.719C17.232,28.719,0,45.951,0,66.055V221.14c0,20.1,17.232,37.335,37.335,37.335H192.42c20.1,0,37.335-17.232,37.335-37.335V176.625c0-8.616-5.744-14.36-14.36-14.36a14.39,14.39,0,0,0-14.36,14.36V221.14c0,4.308-4.308,8.616-8.616,8.616H37.335c-5.744,0-8.616-4.308-8.616-8.616V66.055q0-8.616,8.616-8.616H149.341a14.39,14.39,0,0,0,14.36-14.36c0-8.616-5.744-14.36-14.36-14.36Zm709.37,0c86.158,0,143.6,70.363,143.6,143.6,0,47.387-18.668,76.107-40.207,100.518-10.052,12.924-21.54,22.976-30.155,37.335a94.636,94.636,0,0,0-15.8,34.463H689.267a94.637,94.637,0,0,0-15.8-34.463c-8.616-12.924-20.1-24.412-30.155-37.335-20.1-24.412-40.207-54.567-40.207-100.518C603.108,101.954,660.547,28.719,746.706,28.719Zm14.36,28.719c-34.463,0-67.491,20.1-84.722,50.259-2.872,7.18-1.436,15.8,5.744,20.1s15.8,1.436,20.1-5.744c12.924-22.976,34.463-35.9,58.875-35.9a14.39,14.39,0,0,0,14.36-14.36C775.425,63.183,769.681,57.439,761.065,57.439ZM186.676,71.8a13.036,13.036,0,0,0-10.052,4.308l-61.747,61.747L81.85,104.826a14.215,14.215,0,0,0-20.1,20.1l43.079,43.079a13.881,13.881,0,0,0,20.1,0l71.8-71.8a13.881,13.881,0,0,0,0-20.1A13.036,13.036,0,0,0,186.676,71.8Zm86.158,0c-8.616,0-14.36,5.744-14.36,14.36a14.39,14.39,0,0,0,14.36,14.36H402.072c8.616,0,14.36-5.744,14.36-14.36s-5.744-14.36-14.36-14.36Zm0,57.439c-8.616,0-14.36,5.744-14.36,14.36a14.39,14.39,0,0,0,14.36,14.36H459.511a14.39,14.39,0,0,0,14.36-14.36c0-8.616-5.744-14.36-14.36-14.36ZM660.547,143.6c-8.616,0-14.36,5.744-14.36,14.36s5.744,14.36,14.36,14.36,14.36-5.744,14.36-14.36S669.163,143.6,660.547,143.6ZM834.3,157.957a13.036,13.036,0,0,0-10.052,4.308l-71.8,63.183-38.771-34.463c-5.744-5.744-14.36-4.308-20.1,1.436s-4.308,14.36,1.436,20.1L743.833,255.6a15.1,15.1,0,0,0,18.668,0l80.414-71.8a15.378,15.378,0,0,0,1.436-20.1A12.443,12.443,0,0,0,834.3,157.957ZM272.835,186.676c-8.616,0-14.36,5.744-14.36,14.36a14.39,14.39,0,0,0,14.36,14.36H531.31c8.616,0,14.36-5.744,14.36-14.36s-5.744-14.36-14.36-14.36ZM445.151,287.194c-56,0-100.518,45.951-100.518,100.518,0,30.155,12.924,56,33.027,74.671a115.71,115.71,0,0,0-90.466,113.442v127.8H157.957a14.39,14.39,0,0,0-14.36,14.36v84.722c0,4.308,2.872,10.052,7.18,11.488l78.978,48.823v41.643c0,8.616,5.744,14.36,14.36,14.36H646.187a14.39,14.39,0,0,0,14.36-14.36V864.455L739.526,818.5a15.08,15.08,0,0,0,7.18-12.924V717.986c0-8.616-5.744-14.36-14.36-14.36H560.029V656.239c4.308,4.308,7.18,4.308,11.488,4.308h103.39c24.411,0,43.079-18.668,43.079-43.079s-18.668-43.079-43.079-43.079H621.776c-31.591-30.155-56-76.107-87.594-100.518-7.18-4.308-14.36-8.616-22.975-11.488,21.54-17.232,34.463-44.515,34.463-74.671A99.9,99.9,0,0,0,445.151,287.194ZM37.335,315.914C17.232,315.914,0,333.146,0,353.249V508.334c0,20.1,17.232,37.335,37.335,37.335H192.42c20.1,0,37.335-17.232,37.335-37.335V463.819a14.36,14.36,0,0,0-28.719,0v44.515c0,4.308-4.308,8.616-8.616,8.616H37.335q-8.616,0-8.616-8.616V353.249q0-8.616,8.616-8.616H149.341c8.616,0,14.36-5.744,14.36-14.36s-5.744-14.36-14.36-14.36Zm407.816,0c40.207,0,71.8,31.591,71.8,71.8s-31.591,71.8-71.8,71.8-71.8-31.591-71.8-71.8S404.944,315.914,445.151,315.914ZM186.676,358.993a13.036,13.036,0,0,0-10.052,4.308l-61.747,61.747L81.85,392.02a14.215,14.215,0,0,0-20.1,20.1L104.826,455.2a13.881,13.881,0,0,0,20.1,0l71.8-71.8a13.881,13.881,0,0,0,0-20.1A13.036,13.036,0,0,0,186.676,358.993ZM406.38,488.23h74.671c20.1,0,30.155,2.872,37.335,8.616a158.382,158.382,0,0,1,27.284,27.283l58.875,73.235c2.872,2.872,7.18,5.744,11.488,5.744h60.311c8.616,0,14.36,5.744,14.36,14.36s-5.744,14.36-14.36,14.36H577.261L537.054,591.62a14.215,14.215,0,0,0-20.1,20.1l15.8,17.232v74.671H387.712V617.468c0-8.616-5.744-14.36-14.36-14.36s-14.36,5.744-14.36,14.36v86.158H315.914v-127.8C315.914,527,356.121,488.23,406.38,488.23Z" fill="#ffbd59"/>
    </g>
  </g>
</svg>
