<?xml version="1.0" encoding="utf-8"?>
<!-- Generator: Adobe Illustrator 26.0.1, SVG Export Plug-In . SVG Version: 6.00 Build 0)  -->
<svg version="1.1" id="Layer_1" xmlns="http://www.w3.org/2000/svg" xmlns:xlink="http://www.w3.org/1999/xlink" x="0px" y="0px"
	 viewBox="0 0 1080 1080" style="enable-background:new 0 0 1080 1080;" xml:space="preserve">
<style type="text/css">
	.st0{clip-path:url(#SVGID_00000010989264961804539180000000316956707148932227_);}
	.st1{fill:#FFFFFF;}
	.st2{fill:#FFBD59;}
</style>
<g>
	<defs>
		<rect id="SVGID_1_" y="0" width="1080" height="1080"/>
	</defs>
	<clipPath id="SVGID_00000078004588888716486510000001829939809898147220_">
		<use xlink:href="#SVGID_1_"  style="overflow:visible;"/>
	</clipPath>
	<g id="Icon2" style="clip-path:url(#SVGID_00000078004588888716486510000001829939809898147220_);">
		<rect y="0" class="st1" width="1080" height="1080"/>
		<g id="Group_3">
			<g id="Group_2">
				<path id="Path_1" class="st2" d="M678.9,919L678.9,919c-12,6.4-16.5,21.2-10.1,33.2c6.4,11.9,21.2,16.5,33.2,10.1
					s16.5-21.2,10.1-33.2C705.7,917.2,690.8,912.7,678.9,919z"/>
				<path id="Path_2" class="st2" d="M961.6,693.5c-8.2-14.9-22.1-25.6-39.2-30c-19.2-5-40.9-1.4-58.1,9.5l-153.9,97.7
					c-10.4-28.2-38.2-46.1-68.2-44l-75.3,5.4c-56.8,4.1-57.5,3.7-92.3-16.5c-7.8-4.5-17.5-10.1-29.4-16.7
					c-46.4-25.4-98.9-35.6-160.5-31.4c-46.4,3.2-98,14.8-162.2,36.3c-8.1,2.7-13.5,10.2-13.5,18.7v233.7c0,10.9,8.8,19.8,19.8,19.8
					c2.2,0,4.4-0.4,6.5-1.1l89-30.8l193.6,82.8c29.4,12.5,55.6,19,81.7,19c41.2,0,82.3-16,135.3-49.8c9.2-5.9,11.9-18.1,6.1-27.3
					c-5.9-9.2-18.1-11.9-27.3-6.1l0,0c-83.6,53.3-124.8,51.4-180.3,27.8l-200.6-85.8c-4.5-1.9-9.6-2.1-14.3-0.5l-70,24.2V736.9
					c90.3-29.2,192.1-50.1,277.7-3.3c11.6,6.3,20.6,11.6,28.6,16.2c40.8,23.6,48.5,26.5,114.9,21.7l75.3-5.4
					c15.4-1.1,28.8,10.5,29.9,25.9c0.2,2.6,0,5.1-0.6,7.6c-0.1,0.2-0.1,0.5-0.2,0.7c-3.2,11.9-15.3,19.5-27.6,21.9
					c-45.6,9.1-89.6,17.3-132.2,25.1c-21.7,4-43.4,8-65.5,12.2c-10.7,2-17.8,12.4-15.8,23.1c2,10.7,12.4,17.8,23.1,15.8
					c22-4.1,43.6-8.2,65.3-12.2c42.7-7.9,86.9-16.1,132.7-25.2c26.8-5.4,47.1-21.8,55.7-43.3l175.5-111.4c8-5.1,17.8-6.8,27-4.6
					c6.1,1.4,11.3,5.3,14.4,10.7c7.7,14,7.7,33.5-7.1,43.5L745.2,874.2c-9,6.2-11.3,18.5-5.1,27.5c6.1,8.9,18.3,11.3,27.3,5.3
					L942,788.7C972.3,768.2,980.5,728.2,961.6,693.5L961.6,693.5z"/>
			</g>
			<g id="Group_1">
				<path id="Path_3" class="st2" d="M540.3,627c163.5,0,296.5-133,296.5-296.5S703.8,34,540.3,34c-49.1,0-97.4,12.2-140.7,35.5
					c-9.6,5.1-13.3,17.1-8.1,26.7s17.1,13.3,26.7,8.1c0,0,0.1,0,0.1-0.1c37.5-20.2,79.4-30.7,121.9-30.8c141.7,0,257,115.3,257,257
					s-115.3,257-257,257s-257-115.3-257-257c0-42.8,10.7-84.9,31.1-122.5c5.2-9.6,1.6-21.6-7.9-26.8s-21.6-1.6-26.8,7.9
					c-23.5,43.4-35.8,92-35.9,141.4C243.8,494,376.8,627,540.3,627L540.3,627z"/>
				<path id="Path_4" class="st2" d="M520.5,330.5c0,10.9,8.8,19.8,19.8,19.8c0,0,0,0,0,0h76.6c10.9,0.1,19.8-8.7,19.9-19.6
					s-8.7-19.8-19.6-19.9c-0.1,0-0.2,0-0.3,0H560l0-98.8c-0.1-10.9-9-19.7-19.9-19.6c-10.8,0.1-19.5,8.8-19.6,19.6L520.5,330.5z"/>
				<path id="Path_5" class="st2" d="M540.3,152.6c10.9-0.1,19.7-9,19.6-19.9c-0.1-10.8-8.8-19.5-19.6-19.6h0
					c-10.9,0.1-19.7,9-19.6,19.9C520.7,143.8,529.5,152.5,540.3,152.6z"/>
				<path id="Path_6" class="st2" d="M441.5,179.1c10.9,0,19.8-8.9,19.8-19.8s-8.9-19.8-19.8-19.8c-3.5,0-6.9,0.9-9.9,2.7h0
					c-9.4,5.5-12.6,17.6-7.1,27C427.9,175.4,434.4,179.1,441.5,179.1L441.5,179.1z"/>
				<path id="Path_7" class="st2" d="M352.3,221.3L352.3,221.3c-4.8,8.9-1.4,20,7.5,24.7s20,1.4,24.7-7.5c4.7-8.9,1.4-20-7.5-24.7
					C368.1,209,357,212.4,352.3,221.3z"/>
				<path id="Path_8" class="st2" d="M342.6,350.2c10.9,0,19.8-8.8,19.8-19.8s-8.8-19.8-19.8-19.8c-10.9,0-19.8,8.8-19.8,19.8v0
					C322.9,341.4,331.7,350.3,342.6,350.2L342.6,350.2z"/>
				<path id="Path_9" class="st2" d="M358.7,412.5c-9.3,5.7-12.2,17.9-6.5,27.2l0,0c5.7,9.3,17.9,12.2,27.2,6.5
					c9.3-5.7,12.2-17.9,6.5-27.2C380.2,409.6,368,406.8,358.7,412.5L358.7,412.5z"/>
				<path id="Path_10" class="st2" d="M431.5,518.7L431.5,518.7c9.1,4.8,20.3,1.4,25.1-7.7s1.4-20.3-7.7-25.1
					c-9.1-4.8-20.3-1.4-25.1,7.7C419,502.7,422.4,513.9,431.5,518.7z"/>
				<path id="Path_11" class="st2" d="M540.3,547.9L540.3,547.9c10.9,0,19.8-8.9,19.8-19.8c0-10.9-8.9-19.8-19.8-19.8
					s-19.8,8.9-19.8,19.8C520.5,539.1,529.4,547.9,540.3,547.9z"/>
				<path id="Path_12" class="st2" d="M629.1,484.6c-9.4,5.5-12.6,17.6-7.1,27c5.5,9.4,17.6,12.6,27,7.1l0,0
					c9.4-5.5,12.6-17.6,7.1-27C650.7,482.3,638.6,479.1,629.1,484.6z"/>
				<path id="Path_13" class="st2" d="M701.1,446.2c9.3,5.7,21.5,2.8,27.2-6.5c0,0,0,0,0,0l0,0c5.7-9.3,2.8-21.5-6.5-27.2
					c-9.3-5.7-21.5-2.8-27.2,6.5C688.9,428.3,691.8,440.4,701.1,446.2L701.1,446.2z"/>
				<path id="Path_14" class="st2" d="M718.2,330.5c0.1,10.9,9,19.7,19.9,19.6c10.8-0.1,19.5-8.8,19.6-19.6v0
					c-0.1-10.9-9-19.7-19.9-19.6C727,310.9,718.2,319.7,718.2,330.5z"/>
				<path id="Path_15" class="st2" d="M736.8,229.9c0-10.3-8.3-18.6-18.6-18.6c-10.3,0-18.6,8.3-18.6,18.6s8.3,18.6,18.6,18.6
					C728.4,248.5,736.8,240.2,736.8,229.9L736.8,229.9z"/>
				<path id="Path_16" class="st2" d="M649.1,142.2L649.1,142.2c-8,0-14.5,6.5-14.5,14.5s6.5,14.5,14.5,14.5c8,0,14.5-6.5,14.5-14.5
					C663.5,148.7,657.1,142.2,649.1,142.2z"/>
				<path id="Path_17" class="st2" d="M344.8,154.3c10.9,0,19.8-8.8,19.8-19.8s-8.8-19.8-19.8-19.8c-5.4,0-10.6,2.2-14.3,6.1l0,0
					c-7.5,7.9-7.2,20.4,0.7,27.9C334.9,152.4,339.8,154.3,344.8,154.3L344.8,154.3z"/>
			</g>
		</g>
	</g>
</g>
</svg>
