<svg xmlns="http://www.w3.org/2000/svg" xmlns:xlink="http://www.w3.org/1999/xlink" width="1080" height="1080" viewBox="0 0 1080 1080">
  <defs>
    <clipPath id="clip-Icon5">
      <rect width="1080" height="1080"/>
    </clipPath>
  </defs>
  <g id="Icon5" clip-path="url(#clip-Icon5)">
    <rect width="1080" height="1080" fill="#fff"/>
    <g id="Icon5-2" data-name="Icon5" transform="translate(76.798 121.075)">
      <path id="Path_54" data-name="Path 54" d="M381.787,240.992a119.115,119.115,0,0,0,0-34.628L414.594,175.3a18.739,18.739,0,0,0,3.344-22.976l-21.885-37.906a18.739,18.739,0,0,0-21.57-8.592l-43.382,12.9a132.345,132.345,0,0,0-29.936-17.437L290.688,57.44a18.74,18.74,0,0,0-18.226-14.384h-43.77A18.74,18.74,0,0,0,210.466,57.44l-10.477,43.844a132.333,132.333,0,0,0-29.938,17.439l-43.384-12.9a18.739,18.739,0,0,0-21.57,8.592L83.213,152.32A18.74,18.74,0,0,0,86.556,175.3l32.805,31.066a119.12,119.12,0,0,0,0,34.631L86.556,272.059a18.739,18.739,0,0,0-3.343,22.976L105.1,332.94a18.739,18.739,0,0,0,21.57,8.592l43.382-12.9a132.331,132.331,0,0,0,29.939,17.439l10.476,43.843A18.74,18.74,0,0,0,228.692,404.3h43.771a18.74,18.74,0,0,0,18.226-14.384l10.477-43.844A132.361,132.361,0,0,0,331.1,328.632l43.384,12.9a18.739,18.739,0,0,0,21.57-8.592l21.885-37.906a18.739,18.739,0,0,0-3.344-22.976ZM250.572,296.023a72.345,72.345,0,1,1,72.346-72.345,72.345,72.345,0,0,1-72.346,72.345Z" transform="translate(506.749 220.556)" fill="#ffbd59"/>
      <path id="Path_55" data-name="Path 55" d="M79.257,41.949a28.108,28.108,0,0,0-8.821,38.759l93.079,147.928a58.353,58.353,0,0,0-6.122,40.1L43.33,366.171A28.108,28.108,0,0,0,40.216,405.8l0,.005a28.108,28.108,0,0,0,39.629,3.115l114.115-97.485a58.307,58.307,0,1,0,20.549-112.851c-1.142,0-2.256.107-3.382.17L118.016,50.771a28.108,28.108,0,0,0-38.76-8.821Z" transform="translate(203.943 185.747)" fill="#ffbd59"/>
      <path id="Path_56" data-name="Path 56" d="M87.2,129.194h0a23.422,23.422,0,0,0,31.754-9.43l38.671-71.344a23.422,23.422,0,0,0-9.429-31.753h0a23.423,23.423,0,0,0-31.755,9.43L77.767,97.441A23.422,23.422,0,0,0,87.2,129.194Z" transform="translate(469.754 33.161)" fill="#ffbd59"/>
      <path id="Path_57" data-name="Path 57" d="M127,121.606l58.7-56.132a23.423,23.423,0,1,0-32.376-33.856l-58.7,56.131A23.423,23.423,0,0,0,127,121.606Z" transform="translate(549.636 105.563)" fill="#ffbd59"/>
      <path id="Path_58" data-name="Path 58" d="M79.523,133.821h0A23.423,23.423,0,0,0,106.851,115.1L121.77,35.22A23.423,23.423,0,0,0,103.045,7.9h0A23.422,23.422,0,0,0,75.717,26.619L60.8,106.5a23.422,23.422,0,0,0,18.724,27.324Z" transform="translate(376.546 -7.492)" fill="#ffbd59"/>
      <path id="Path_59" data-name="Path 59" d="M496.964,769.969c-162.282,37.386-333.748-51.72-393.058-208.006A336.922,336.922,0,0,1,82.638,424.226c7.5-140.733,102.879-267.5,238.927-308.169q14.307-4.292,28.956-7.219a18.737,18.737,0,0,0,4.029-35.61L209.291,10.562A18.739,18.739,0,0,0,184.754,35.4l14.161,31.745a347.116,347.116,0,0,0-36.167,25.766A430.041,430.041,0,0,0,10.866,336.432a420.65,420.65,0,0,0,44.412,294.4A408.079,408.079,0,0,0,271.156,812.318a398.52,398.52,0,0,0,297.769-12.275A393.47,393.47,0,0,0,719.214,676.552a73.821,73.821,0,0,1-37.76-22.3A335.865,335.865,0,0,1,496.964,769.969Z" transform="translate(-1.448 2.356)" fill="#ffbd59"/>
    </g>
  </g>
</svg>
