<svg xmlns="http://www.w3.org/2000/svg" xmlns:xlink="http://www.w3.org/1999/xlink" width="1080" height="1080" viewBox="0 0 1080 1080">
  <defs>
    <clipPath id="clip-Icon4">
      <rect width="1080" height="1080"/>
    </clipPath>
  </defs>
  <g id="Icon4" clip-path="url(#clip-Icon4)">
    <rect width="1080" height="1080" fill="#fff"/>
    <g id="Icon4-2" data-name="Icon4" transform="translate(74 74)">
      <path id="Path_25" data-name="Path 25" d="M89,23.857,59.989,31.734a435.513,435.513,0,0,1,11.274,55.86l29.809-4A466.091,466.091,0,0,0,89,23.857Z" transform="translate(826.749 319.735)" fill="#ffbd59"/>
      <path id="Path_26" data-name="Path 26" d="M13.135,99.522l29.1-7.8A434.433,434.433,0,0,1,31.069,35.845L1.275,39.8a466.984,466.984,0,0,0,11.86,59.723Z" transform="translate(2.859 487.954)" fill="#ffbd59"/>
      <path id="Path_27" data-name="Path 27" d="M2.03,78.04l29.072,7.7A436.661,436.661,0,0,1,49.291,31.62L21.482,20.2A470.213,470.213,0,0,0,2.03,78.04Z" transform="translate(13.453 268.363)" fill="#ffbd59"/>
      <path id="Path_28" data-name="Path 28" d="M56.42,94.252a435.216,435.216,0,0,1-25.3-51.11L3.371,54.717a461.367,461.367,0,0,0,27.058,54.552Z" transform="translate(32.27 590.347)" fill="#ffbd59"/>
      <path id="Path_29" data-name="Path 29" d="M7.434,68.043A463.944,463.944,0,0,0,47.66,113.757L68.886,92.471A434.15,434.15,0,0,1,31.305,49.689Z" transform="translate(89.284 682.216)" fill="#ffbd59"/>
      <path id="Path_30" data-name="Path 30" d="M70.949,3.385A467.139,467.139,0,0,0,16.427,30.443L31.549,56.434A432.827,432.827,0,0,1,82.539,31.12Z" transform="translate(215.476 32.467)" fill="#ffbd59"/>
      <path id="Path_31" data-name="Path 31" d="M74.079,31.263,55.695,7.452a469.679,469.679,0,0,0-45.668,40.3l21.316,21.2A437.56,437.56,0,0,1,74.079,31.263Z" transform="translate(125.669 89.536)" fill="#ffbd59"/>
      <path id="Path_32" data-name="Path 32" d="M31.837,60.759,27.989,90.583a474.744,474.744,0,0,0,60.294,3.863h.466l-.466-30.064a441.974,441.974,0,0,1-56.411-3.618Z" transform="translate(377.717 837.553)" fill="#ffbd59"/>
      <path id="Path_33" data-name="Path 33" d="M63.834,112.741,78.866,86.7A441.421,441.421,0,0,1,31.424,55.032L13.16,78.9a471.687,471.687,0,0,0,50.674,33.838Z" transform="translate(169.632 757.191)" fill="#ffbd59"/>
      <path id="Path_34" data-name="Path 34" d="M49.665,90.081l18.324,23.841a467.875,467.875,0,0,0,45.758-40.2L92.492,52.5A439.61,439.61,0,0,1,49.665,90.081Z" transform="translate(681.88 721.661)" fill="#ffbd59"/>
      <path id="Path_35" data-name="Path 35" d="M64.429,31.875v1.879a442.626,442.626,0,0,1-3.673,56.939l29.8,3.836a471.49,471.49,0,0,0,3.939-61.121v-1.5Z" transform="translate(837.506 432.246)" fill="#ffbd59"/>
      <path id="Path_36" data-name="Path 36" d="M34.627,31.839,4.8,28.021A471.278,471.278,0,0,0,1,87.834v.932l30.065-.932a442,442,0,0,1,3.561-55.981Z" transform="translate(-1 378.166)" fill="#ffbd59"/>
      <path id="Path_37" data-name="Path 37" d="M85.649,77.062A435.712,435.712,0,0,1,31.624,58.813L20.169,86.623a466.143,466.143,0,0,0,57.769,19.542Z" transform="translate(267.984 810.247)" fill="#ffbd59"/>
      <path id="Path_38" data-name="Path 38" d="M39.723,100.9a458.066,458.066,0,0,0,59.753-11.86L91.69,60.014A432.63,432.63,0,0,1,35.815,71.108Z" transform="translate(487.533 827.1)" fill="#ffbd59"/>
      <path id="Path_39" data-name="Path 39" d="M62.792,31.449,38.921,13.185A467.5,467.5,0,0,0,5.113,63.9L31.194,78.936a437.459,437.459,0,0,1,31.6-47.487Z" transform="translate(56.715 169.983)" fill="#ffbd59"/>
      <path id="Path_40" data-name="Path 40" d="M110.2,70.862A471.912,471.912,0,0,0,83.056,16.4L57.065,31.552a437.832,437.832,0,0,1,25.45,50.989Z" transform="translate(785.718 215.097)" fill="#ffbd59"/>
      <path id="Path_41" data-name="Path 41" d="M113.947,55.628A468.634,468.634,0,0,0,73.63,10l-21.2,21.316A439.181,439.181,0,0,1,90.166,74.042Z" transform="translate(720.749 125.36)" fill="#ffbd59"/>
      <path id="Path_42" data-name="Path 42" d="M61.445,5.1,46.413,31.166A439.57,439.57,0,0,1,93.9,62.734l18.234-23.9A467.3,467.3,0,0,0,61.445,5.1Z" transform="translate(636.247 56.532)" fill="#ffbd59"/>
      <path id="Path_43" data-name="Path 43" d="M112.724,61.532,86.718,46.5a444.125,444.125,0,0,1-31.7,47.4l23.826,18.219a468.393,468.393,0,0,0,33.883-50.584Z" transform="translate(756.952 637.468)" fill="#ffbd59"/>
      <path id="Path_44" data-name="Path 44" d="M109.26,83.132,94.228,57.111A440.266,440.266,0,0,1,43.118,82.38L54.693,110.13a469.153,469.153,0,0,0,54.567-27Z" transform="translate(590.01 786.364)" fill="#ffbd59"/>
      <path id="Path_45" data-name="Path 45" d="M83.627,1.273A467.955,467.955,0,0,0,23.889,13.3l7.832,28.967A435.616,435.616,0,0,1,87.6,31.037Z" transform="translate(320.184 2.831)" fill="#ffbd59"/>
      <path id="Path_46" data-name="Path 46" d="M88.938,34.567,92.727,4.743A472.96,472.96,0,0,0,33.319,1H31.906l1.413,30.065a441.042,441.042,0,0,1,55.619,3.5Z" transform="translate(432.681 -1)" fill="#ffbd59"/>
      <path id="Path_47" data-name="Path 47" d="M106.182,47.317,77.154,39.5A439.846,439.846,0,0,1,58.8,93.616l27.765,11.5a459.978,459.978,0,0,0,19.617-57.8Z" transform="translate(810.064 539.242)" fill="#ffbd59"/>
      <path id="Path_48" data-name="Path 48" d="M104.9,21.43A462.877,462.877,0,0,0,47.082,2.023L39.416,31.1A431.2,431.2,0,0,1,93.532,49.239Z" transform="translate(538.063 13.355)" fill="#ffbd59"/>
      <path id="Path_49" data-name="Path 49" d="M222.2,22C111.632,22,22,111.632,22,222.2s89.632,200.2,200.2,200.2,200.2-89.632,200.2-200.2S332.767,22,222.2,22ZM207.185,202.18h30.03a62.783,62.783,0,0,1,65.065,60.06,62.062,62.062,0,0,1-60.06,59.6v20.48H202.18v-20.48a62.062,62.062,0,0,1-60.06-59.6h40.04a23.263,23.263,0,0,0,25.025,20.02h30.03a20.52,20.52,0,1,0,0-40.04h-30.03a62.783,62.783,0,0,1-65.065-60.06,62.062,62.062,0,0,1,60.06-59.6V102.08h40.04v20.48a62.062,62.062,0,0,1,60.06,59.6h-40.04a23.263,23.263,0,0,0-25.025-20.02h-30.03a23.263,23.263,0,0,0-25.025,20.02,23.263,23.263,0,0,0,25.025,20.02Z" transform="translate(243.8 243.8)" fill="#ffbd59"/>
      <path id="Path_50" data-name="Path 50" d="M28.293,55.5,49.549,76.754,68.985,57.317V186.384H99.05V57.317l19.437,19.437L139.742,55.5l-45.1-45.1a15.032,15.032,0,0,0-21.256,0Z" transform="translate(381.982 69.164)" fill="#ffbd59"/>
      <path id="Path_51" data-name="Path 51" d="M139.742,176.886,118.487,155.63,99.05,175.067V46H68.985V175.067L49.549,155.63,28.293,176.886l45.1,45.1a15.032,15.032,0,0,0,21.256,0Z" transform="translate(381.982 630.451)" fill="#ffbd59"/>
      <path id="Path_52" data-name="Path 52" d="M221.983,94.645a15.032,15.032,0,0,0,0-21.256l-45.1-45.1L155.63,49.549l19.437,19.437H46V99.05H175.067L155.63,118.486l21.256,21.256Z" transform="translate(630.451 381.982)" fill="#ffbd59"/>
      <path id="Path_53" data-name="Path 53" d="M186.384,68.985H57.317L76.754,49.549,55.5,28.293,10.4,73.39a15.032,15.032,0,0,0,0,21.256l45.1,45.1,21.256-21.256L57.317,99.05H186.384Z" transform="translate(69.164 381.982)" fill="#ffbd59"/>
    </g>
  </g>
</svg>
